<svg xmlns="http://www.w3.org/2000/svg" xmlns:xlink="http://www.w3.org/1999/xlink" viewBox="0,0,256,256" width="48px" height="48px" fill-rule="nonzero"><g fill="none" fill-rule="nonzero" stroke="none" stroke-width="none" stroke-linecap="none" stroke-linejoin="none" stroke-miterlimit="10" stroke-dasharray="" stroke-dashoffset="0" font-family="none" font-weight="none" font-size="none" text-anchor="none" style="mix-blend-mode: normal"><g transform="scale(5.33333,5.33333)"><path d="M41.9,31.1c3.6,-3.6 4.4,-8.8 2.6,-13.2l-6.5,6.5l-5.4,-1.2l-1,-5.2l6.4,-6.4c-4.4,-1.8 -9.6,-1 -13.2,2.6c-3.3,3.3 -4.3,8 -2.9,12.1l-9.7,9.7c-2.1,2.1 -2.1,5.6 0,7.8v0c2.1,2.1 5.6,2.1 7.8,0l9.8,-9.8c4.1,1.3 8.8,0.4 12.1,-2.9z" fill="#71849a" stroke="none" stroke-width="1" stroke-linecap="butt" stroke-linejoin="miter"></path><path d="M21.7,34.1l4,-4c4.1,1.3 8.8,0.3 12.1,-2.9c3.6,-3.6 4.4,-8.8 2.6,-13.2l-6.4,6.4l-5.4,-1.2l-1,-5.2l6.4,-6.4c-3.8,-1.7 -8.3,-1.2 -11.8,1.4" fill="none" stroke="#18193f" stroke-width="3" stroke-linecap="round" stroke-linejoin="round"></path><path d="M18.1,14.6c-0.9,2.5 -0.9,5.1 -0.1,7.6l-9.8,9.8c-2.1,2.1 -2.1,5.6 0,7.8v0c2.1,2.1 5.6,2.1 7.8,0l1.8,-1.8" fill="none" stroke="#18193f" stroke-width="3" stroke-linecap="round" stroke-linejoin="round"></path></g></g></svg>